HIERARCHY
ROOT Hips
{
	OFFSET -3.958830 18.904000 13.208200
	CHANNELS 6 Xposition Yposition Zposition Zrotation Yrotation Xrotation 
	JOINT LHipJoint
	{
		OFFSET 0.000000 0.000000 0.000000
		CHANNELS 3 Zrotation Yrotation Xrotation
		JOINT LeftUpLeg
		{
			OFFSET 1.800000 -1.400000 0.085000
			CHANNELS 3 Zrotation Yrotation Xrotation
			JOINT LeftLeg
			{
				OFFSET 2.215000 -6.000000 0.000000
				CHANNELS 3 Zrotation Yrotation Xrotation
				JOINT LeftFoot
				{
					OFFSET 2.500000 -6.900000 0.000000
					CHANNELS 3 Zrotation Yrotation Xrotation
					JOINT LeftToeBase
					{
						OFFSET 0.200000 -0.500000 1.950000
						CHANNELS 3 Zrotation Yrotation Xrotation
						End Site
						{
							OFFSET 0.000000 0.000000 0.000000
						}
					}
				}
			}
		}
	}
	JOINT RHipJoint
	{
		OFFSET 0.000000 0.000000 0.000000
		CHANNELS 3 Zrotation Yrotation Xrotation
		JOINT RightUpLeg
		{
			OFFSET -1.800000 -1.400000 0.085000
			CHANNELS 3 Zrotation Yrotation Xrotation
			JOINT RightLeg
			{
				OFFSET -2.215000 -6.000000 0.000000
				CHANNELS 3 Zrotation Yrotation Xrotation
				JOINT RightFoot
				{
					OFFSET -2.500000 -6.900000 0.000000
					CHANNELS 3 Zrotation Yrotation Xrotation
					JOINT RightToeBase
					{
						OFFSET -0.200000 -0.500000 1.950000
						CHANNELS 3 Zrotation Yrotation Xrotation
						End Site
						{
							OFFSET 0.000000 0.000000 0.000000
						}
					}
				}
			}
		}
	}
	JOINT LowerBack
	{
		OFFSET 0.000000 0.000000 0.000000
		CHANNELS 3 Zrotation Yrotation Xrotation
		JOINT Spine
		{
			OFFSET -0.087000 1.940000 -0.288900
			CHANNELS 3 Zrotation Yrotation Xrotation
			JOINT Spine1
			{
				OFFSET 0.000000 1.950000 0.060000
				CHANNELS 3 Zrotation Yrotation Xrotation
				JOINT Neck
				{
					OFFSET 0.000000 0.000000 0.000000
					CHANNELS 3 Zrotation Yrotation Xrotation
					JOINT Neck1
					{
						OFFSET 0.000000 1.600000 0.340000
						CHANNELS 3 Zrotation Yrotation Xrotation
						JOINT Head
						{
							OFFSET 0.000000 1.667000 -0.240000
							CHANNELS 3 Zrotation Yrotation Xrotation
							End Site
							{
								OFFSET 0.000000 0.000000 0.000000
							}
						}
					}
				}
				JOINT LeftShoulder
				{
					OFFSET 0.000000 0.000000 0.000000
					CHANNELS 3 Zrotation Yrotation Xrotation
					JOINT LeftArm
					{
						OFFSET 2.700000 1.550000 -0.730000
						CHANNELS 3 Zrotation Yrotation Xrotation
						JOINT LeftForeArm
						{
							OFFSET 5.450000 0.000000 0.000000
							CHANNELS 3 Zrotation Yrotation Xrotation
							JOINT LeftHand
							{
								OFFSET 3.450000 0.000000 0.000000
								CHANNELS 3 Zrotation Yrotation Xrotation
								JOINT LeftHandIndex1
								{
									OFFSET 0.750000 0.000000 0.000000
									CHANNELS 3 Zrotation Yrotation Xrotation
									End Site
									{
										OFFSET 0.000000 0.000000 0.000000
									}
								}
							}
						}
					}
				}
				JOINT RightShoulder
				{
					OFFSET 0.000000 0.000000 0.000000
					CHANNELS 3 Zrotation Yrotation Xrotation
					JOINT RightArm
					{
						OFFSET -2.700000 1.550000 -0.730000
						CHANNELS 3 Zrotation Yrotation Xrotation
						JOINT RightForeArm
						{
							OFFSET -5.450000 0.000000 0.000000
							CHANNELS 3 Zrotation Yrotation Xrotation
							JOINT RightHand
							{
								OFFSET -3.450000 0.000000 0.000000
								CHANNELS 3 Zrotation Yrotation Xrotation
								JOINT RightHandIndex1
								{
									OFFSET -0.750000 0.000000 0.000000
									CHANNELS 3 Zrotation Yrotation Xrotation
									End Site
									{
										OFFSET 0.000000 0.000000 0.000000
									}
								}
							}
						}
					}
				}
			}
		}
	}
}
MOTION
Frames: 13
Frame Time: 0.016667
-0.460130 17.322880 -0.583290 -28.937161 -8.380443 -2.068110 -14.585572 11.223073 1.795128 28.848413 3.211026 -20.373058 10.127255 4.396544 15.560100 -1.052866 4.655371 2.613261 1.271070 0.486320 1.474210 19.098057 -9.680349 5.641099 -6.012797 14.212856 -39.168832 87.762751 -55.743014 37.766963 -3.410998 -13.069216 0.419368 0.335480 -0.343850 0.369240 -5.596767 1.884771 -9.071201 6.189374 -3.522404 34.893882 -25.378101 1.708904 10.982386 4.740897 1.199258 -13.406040 5.418080 10.197623 74.881184 -1.498930 15.981600 -15.102310 -10.199683 -23.545231 7.981002 -13.407247 -1.296890 -10.262717 -96.434759 -51.842588 42.167427 -3.312562 3.393017 1.245240 -0.140250 0.318700 0.037140 0.525633 23.330227 5.042299 62.158203 44.190044 4.869375 47.108663 41.143077 10.379905 1.984023 -1.700458 -0.194950 0.047240 -0.360330 -0.771530 
-0.438160 17.330580 -0.570970 -28.634053 -7.336580 -2.597439 -14.520022 11.100694 1.824419 29.047050 2.956937 -19.958248 8.709602 4.540087 14.894306 -1.073299 4.632792 2.629017 1.278320 0.508480 1.451830 19.158005 -9.766290 5.592425 -8.126384 13.155372 -38.925638 87.898638 -56.401813 37.732415 -3.377775 -12.984651 0.435523 0.360290 -0.315810 0.352840 -5.774296 2.110224 -9.032497 6.967939 -4.609186 34.856258 -26.829583 0.870824 11.903107 4.770345 0.242682 -13.212580 3.104176 12.003571 73.874601 -0.523140 15.379760 -15.126960 -9.108369 -23.200436 8.036852 -13.575971 -0.929700 -10.550608 -97.660898 -52.990507 43.838283 -3.314227 3.388898 1.232000 -0.139210 0.301890 0.048160 -0.556919 23.173634 5.080696 62.210557 44.865437 5.184522 46.828208 41.863949 10.437456 1.977247 -1.694307 -0.203410 0.079660 -0.354000 -0.751870 
-0.426390 17.327400 -0.561080 -28.471567 -6.896302 -2.377762 -14.472189 10.945253 1.838180 29.227258 2.796912 -19.986495 7.746457 4.681116 14.574466 -1.094368 4.654153 2.625262 1.267840 0.503200 1.409370 19.222736 -9.760510 5.617237 -9.561621 12.997169 -39.583697 86.107513 -57.787380 39.671046 -3.377022 -13.133636 0.406061 0.376150 -0.273020 0.340620 -5.948429 2.295028 -9.021307 8.051358 -5.428038 33.962684 -28.252419 0.226190 12.396574 4.789054 -0.744558 -12.868428 0.711920 13.882985 72.268100 0.393880 14.812980 -14.353840 -8.011695 -22.222300 7.816716 -13.978816 -1.092981 -10.464889 -98.413274 -53.687493 45.082028 -3.350076 3.393868 1.206380 -0.118970 0.260470 0.057740 -1.678388 22.428836 5.064116 63.515047 45.748565 6.375713 46.581612 42.012532 10.428914 1.966631 -1.719062 -0.219250 0.096880 -0.335850 -0.735010 
-0.432650 17.315250 -0.550470 -27.457220 -6.536495 -1.956265 -14.466729 10.920991 1.761670 28.346125 2.424739 -20.039696 7.213649 4.599419 14.297308 -1.132143 4.565737 2.681786 1.260420 0.486400 1.382450 19.234718 -9.700939 5.723820 -11.518666 12.947909 -40.756511 84.151239 -58.087390 41.348320 -3.388500 -13.280791 0.372870 0.382180 -0.221140 0.352850 -5.978248 2.246159 -9.001270 7.486677 -5.337777 32.757942 -28.799731 -0.135507 12.624051 4.632856 -1.049649 -12.482561 0.098337 14.990432 71.022551 1.331600 14.869570 -13.524160 -6.576203 -20.959531 7.478704 -14.591005 -1.771409 -10.085229 -99.145499 -54.141072 46.269970 -3.404405 3.398177 1.193210 -0.090620 0.231650 0.076510 -2.795584 21.034691 4.968047 66.167557 46.923284 8.537368 46.328067 41.518996 10.330651 1.957847 -1.768077 -0.235020 0.110270 -0.322590 -0.722860 
-0.428430 17.318190 -0.547670 -27.314312 -6.520175 -1.951924 -14.444591 10.867120 1.710402 28.202561 2.397175 -19.857613 7.082953 4.596900 14.264088 -1.143743 4.558878 2.685887 1.257100 0.488920 1.375590 19.266339 -9.689235 5.789001 -12.236657 13.375361 -41.032196 82.026180 -57.706536 42.816861 -3.405978 -13.415582 0.329202 0.388060 -0.205430 0.364090 -6.062283 2.370535 -8.992629 8.054108 -5.447497 32.526995 -29.282038 -0.246188 12.805024 4.616744 -1.142390 -12.160845 0.011665 15.325705 70.465159 1.350890 14.951950 -13.685090 -5.942330 -20.376913 7.145479 -14.380686 -2.539941 -9.874398 -99.693121 -54.005638 46.697594 -3.434685 3.396993 1.184020 -0.078330 0.228530 0.075190 -3.387096 20.300472 4.915138 67.595230 47.657583 9.581005 46.226666 41.277788 10.253116 1.956498 -1.791705 -0.234430 0.114720 -0.313110 -0.715240 
-0.422050 17.320970 -0.547980 -27.597145 -6.382231 -2.029475 -14.423406 10.826496 1.702589 28.275905 2.439417 -19.998809 7.414899 4.539568 14.299427 -1.143503 4.548589 2.675910 1.258800 0.497230 1.375570 19.295217 -9.709598 5.799677 -12.472789 13.610063 -41.113304 82.060572 -56.172456 41.896809 -3.376474 -13.353698 0.337269 0.389470 -0.215520 0.378930 -6.136883 2.515350 -8.994548 9.098448 -5.707821 32.579015 -29.640190 -0.313155 12.876303 4.782321 -0.930967 -11.920217 0.645091 14.965567 70.501271 0.744540 15.177970 -13.749060 -6.412694 -20.295576 6.800164 -13.210286 -3.175169 -9.606220 -99.798474 -53.104617 46.220297 -3.442346 3.418001 1.172880 -0.066950 0.230100 0.067240 -3.247149 19.929477 4.894775 68.158670 47.836114 9.990053 45.983931 41.476519 10.265363 1.952345 -1.811134 -0.220600 0.089720 -0.313210 -0.715710 
-0.416790 17.323470 -0.554540 -27.629114 -6.168798 -2.290802 -14.421493 10.860813 1.682209 28.050316 2.380857 -20.273150 7.896520 4.438144 14.712312 -1.107868 4.498497 2.690478 1.275880 0.520630 1.389530 19.293802 -9.736578 5.808224 -12.895860 13.341018 -41.366159 83.439828 -55.030144 40.137319 -3.344782 -13.203608 0.373413 0.385700 -0.238130 0.394990 -6.130458 2.538291 -8.987672 9.462371 -5.838648 33.039071 -29.485474 -0.353692 13.018785 4.978684 -0.736572 -11.848818 1.162797 14.356372 70.700874 -0.139320 15.331290 -13.449420 -7.059559 -20.519601 6.638585 -12.078148 -3.454059 -9.534367 -99.317987 -53.562208 46.697754 -3.433525 3.456354 1.143610 -0.063740 0.239400 0.073660 -2.941302 20.062942 4.918751 67.949560 48.009574 9.997120 45.292698 41.725790 10.113203 1.963417 -1.836757 -0.184100 0.051500 -0.337990 -0.707610 
-0.417450 17.325160 -0.564720 -27.376837 -6.007956 -2.787910 -14.435288 10.936567 1.651196 27.707355 2.338418 -20.325653 8.230587 4.356126 15.175786 -1.070008 4.421758 2.697572 1.302060 0.569010 1.399270 19.269265 -9.751090 5.831180 -13.295282 13.021852 -41.711690 84.977776 -54.487539 38.720543 -3.329050 -13.086085 0.395971 0.392650 -0.287410 0.402470 -6.061855 2.483704 -8.987861 9.044339 -5.748933 34.087726 -28.786939 -0.337596 12.977887 5.017481 -0.575942 -11.910985 1.523249 13.478556 71.161488 -0.867440 15.156180 -13.584760 -7.519414 -20.954874 6.676848 -11.329502 -3.375615 -9.672889 -99.942805 -53.732528 47.397995 -3.393805 3.509941 1.117850 -0.080560 0.261640 0.074350 -2.483661 20.620695 4.911253 66.931534 47.853120 9.284536 45.148701 41.658052 9.974027 1.984179 -1.857634 -0.137080 0.002310 -0.368590 -0.696040 
-0.416500 17.317590 -0.572870 -27.160242 -6.015367 -3.290474 -14.433409 10.984810 1.618287 27.534194 2.365028 -20.316932 8.439886 4.343845 15.822273 -1.058874 4.413456 2.689168 1.328880 0.604420 1.425520 19.263597 -9.787320 5.838587 -13.554547 12.698055 -42.030166 86.844631 -54.623910 37.492272 -3.334992 -12.979117 0.419788 0.399930 -0.322800 0.406910 -6.047167 2.501939 -8.972438 9.180303 -5.897707 35.170062 -28.435778 -0.382220 12.941151 5.018161 -0.699852 -12.023824 1.121889 13.065043 71.987491 -1.588540 14.796660 -14.582040 -7.768822 -21.322906 6.830708 -11.275132 -3.027158 -9.975601 -100.682703 -54.149932 48.157103 -3.363396 3.511662 1.126720 -0.103820 0.293110 0.073970 -2.177377 21.232580 4.876426 66.260464 47.805054 8.557058 44.832461 40.912562 9.565894 1.995452 -1.847150 -0.113780 -0.003990 -0.387540 -0.694150 
-0.417330 17.303270 -0.580820 -26.637583 -6.026305 -3.433601 -14.427340 11.008748 1.575953 26.987881 2.281712 -20.652387 8.503506 4.334869 16.664546 -1.073623 4.385745 2.685251 1.335870 0.615690 1.445390 19.266047 -9.822775 5.886145 -14.080567 12.333713 -43.157512 88.749783 -55.487852 36.690427 -3.345872 -12.941052 0.426445 0.401520 -0.353330 0.408920 -6.049537 2.572071 -8.963600 9.399027 -5.853092 35.889492 -28.560460 -0.327460 12.513548 5.207398 -0.470083 -11.795470 1.569664 12.111363 73.010063 -2.629210 14.546070 -15.346110 -8.618445 -21.129221 6.263462 -10.141024 -3.925624 -9.749230 -100.126255 -52.931745 46.971827 -3.352299 3.508379 1.134750 -0.115290 0.310580 0.058760 -1.691196 20.921104 4.843551 66.736565 47.119451 8.307019 44.840083 40.279965 9.322224 1.998206 -1.848591 -0.104180 -0.012440 -0.389810 -0.703530 
-0.424190 17.282010 -0.589410 -25.942701 -5.847844 -3.565336 -14.432487 11.043181 1.558194 26.365736 2.151555 -21.314943 8.592575 4.339949 17.802956 -1.104841 4.397093 2.666802 1.338340 0.613650 1.456320 19.257381 -9.856243 5.903160 -14.386410 11.712303 -44.240323 90.877892 -56.927102 35.921277 -3.359246 -12.909899 0.434283 0.403370 -0.370170 0.415390 -6.017779 2.574934 -8.953279 9.319795 -5.805673 36.665612 -28.501041 -0.333210 12.095438 5.348439 -0.166513 -11.616326 2.268474 11.292567 74.048008 -3.194200 14.471890 -15.897400 -9.119556 -20.932319 5.856910 -9.728308 -4.633941 -9.640173 -99.963394 -51.959927 46.081986 -3.350551 3.500566 1.156110 -0.120860 0.322650 0.047610 -1.451883 20.519320 4.757334 67.154516 46.359215 7.939050 45.247674 39.518537 9.140545 1.989218 -1.849950 -0.108340 -0.015040 -0.382650 -0.717740 
-0.436740 17.255370 -0.600780 -24.992192 -5.447251 -3.512908 -14.449213 11.057578 1.573199 25.647263 1.910043 -22.217018 8.320075 4.402936 18.831900 -1.116427 4.397429 2.661832 1.338340 0.616180 1.461620 19.243141 -9.850997 5.918679 -14.886937 10.953154 -45.599553 92.610017 -58.743552 35.522693 -3.370612 -12.891245 0.445248 0.405520 -0.372520 0.413670 -5.962853 2.505121 -8.951632 9.127392 -5.732097 37.350369 -28.166629 -0.425153 11.653434 5.357681 -0.062676 -11.327192 2.401459 10.912043 74.659427 -3.305500 14.304260 -15.922840 -9.369486 -20.428745 5.302787 -9.980282 -5.830046 -9.483626 -98.604763 -50.822916 44.227199 -3.359960 3.486369 1.154640 -0.121270 0.325720 0.043880 -1.191072 19.883611 4.632891 67.989918 45.435033 7.698045 45.691936 38.641252 8.938375 1.992144 -1.864905 -0.108160 -0.010290 -0.382420 -0.717980 
-0.443730 17.229710 -0.616910 -24.219459 -5.291568 -3.454179 -14.462327 11.035496 1.598542 25.270386 1.827755 -23.022295 8.009551 4.539653 19.806631 -1.102987 4.427274 2.649338 1.368780 0.654400 1.482650 19.241592 -9.820001 5.942259 -15.351183 10.612065 -46.766966 93.687296 -59.951716 35.329718 -3.394388 -12.877852 0.463320 0.419660 -0.385560 0.406400 -5.938905 2.480685 -8.958312 9.549963 -5.862021 38.267085 -27.894742 -0.446143 11.275926 5.393106 -0.266615 -11.084210 1.677695 10.951399 74.981638 -3.357250 13.841900 -16.218900 -9.159986 -19.929339 4.824058 -11.169490 -7.168598 -9.500566 -97.224330 -49.231646 41.605504 -3.345601 3.478547 1.148490 -0.133550 0.338210 0.056970 -1.450722 19.492200 4.566703 68.424334 44.332568 6.817327 46.343258 37.991139 8.703258 1.992151 -1.893273 -0.092160 -0.001670 -0.407080 -0.710320 
